0
SECTION
2
HEADER
9
$INSUNITS
70
4
9
$ACADVER
1
AC1014
9
$HANDSEED
5
FFFF
0
ENDSEC
0
SECTION
2
TABLES
0
TABLE
2
VPORT
5
8
100
AcDbSymbolTable
0
ENDTAB
0
TABLE
2
LTYPE
5
5
100
AcDbSymbolTable
0
LTYPE
5
14
100
AcDbSymbolTableRecord
100
AcDbLinetypeTableRecord
2
BYBLOCK
70
0
0
LTYPE
5
15
100
AcDbSymbolTableRecord
100
AcDbLinetypeTableRecord
2
BYLAYER
70
0
0
LTYPE
5
16
100
AcDbSymbolTableRecord
100
AcDbLinetypeTableRecord
2
DASHED
70
0
3
Dashed __ __ __ __ __ __ __ __ __ __ __ __ __ _
72
65
73
2
40
0.75
49
0.5
74
0
49
-0.25
74
0
0
ENDTAB
0
TABLE
2
LAYER
5
2
100
AcDbSymbolTable
70
2
0
LAYER
5
50
100
AcDbSymbolTableRecord
100
AcDbLayerTableRecord
2
0
70
0
62
7
6
CONTINUOUS
0
ENDTAB
0
TABLE
2
STYLE
5
3
100
AcDbSymbolTable
70
1
0
STYLE
5
11
100
AcDbSymbolTableRecord
100
AcDbTextStyleTableRecord
2
STANDARD
70
0
0
ENDTAB
0
TABLE
2
VIEW
5
6
100
AcDbSymbolTable
70
0
0
ENDTAB
0
TABLE
2
UCS
5
7
100
AcDbSymbolTable
70
0
0
ENDTAB
0
TABLE
2
APPID
5
9
100
AcDbSymbolTable
70
2
0
APPID
5
12
100
AcDbSymbolTableRecord
100
AcDbRegAppTableRecord
2
ACAD
70
0
0
ENDTAB
0
TABLE
2
DIMSTYLE
5
A
100
AcDbSymbolTable
70
1
0
ENDTAB
0
TABLE
2
BLOCK_RECORD
5
1
100
AcDbSymbolTable
70
1
0
BLOCK_RECORD
5
1F
100
AcDbSymbolTableRecord
100
AcDbBlockTableRecord
2
*MODEL_SPACE
0
BLOCK_RECORD
5
1B
100
AcDbSymbolTableRecord
100
AcDbBlockTableRecord
2
*PAPER_SPACE
0
ENDTAB
0
ENDSEC
0
SECTION
2
BLOCKS
0
BLOCK
5
20
100
AcDbEntity
100
AcDbBlockBegin
2
*MODEL_SPACE
0
ENDBLK
5
21
100
AcDbEntity
100
AcDbBlockEnd
0
BLOCK
5
1C
100
AcDbEntity
100
AcDbBlockBegin
2
*PAPER_SPACE
0
ENDBLK
5
1D
100
AcDbEntity
100
AcDbBlockEnd
0
ENDSEC
0
SECTION
2
ENTITIES
0
LINE
5
100
100
AcDbEntity
8
0
100
AcDbLine
10
-11.153155131678032
20
-290.35507492241072
30
0
11
-1.1320413804024732
21
-175.57255672272376
31
0
0
LINE
5
101
100
AcDbEntity
8
0
100
AcDbLine
10
-1.1320413804024732
20
-175.57255672272376
30
0
11
-10.728535234024235
21
-58.8468062353042
31
0
0
SPLINE
5
102
100
AcDbEntity
8
0
100
AcDbSpline
70
4
71
5
72
21
73
15
74
0
42
0.000000001
43
0.0000000001
44
0.0000000001
40
0
40
0
40
0
40
0
40
0
40
0
40
0.10000000000000001
40
0.20000000000000001
40
0.30000000000000004
40
0.40000000000000002
40
0.5
40
0.59999999999999998
40
0.69999999999999996
40
0.79999999999999993
40
0.89999999999999991
40
1
40
1
40
1
40
1
40
1
40
1
41
1
41
1
41
1
41
1
41
1
41
1
41
1
41
1
41
1
41
1
41
1
41
1
41
1
41
1
41
1
10
-10.728535234024235
20
-58.8468062353042
30
0
10
-10.748547201123577
20
-58.663960099920004
30
0
10
-10.793399916147042
20
-58.304728172322967
30
0
10
-10.875164423819133
20
-57.785260096530202
30
0
10
-11.013639107823259
20
-57.13204379101925
30
0
10
-11.23927308079104
20
-56.385816602129822
30
0
10
-11.522563894181845
20
-55.716727512650479
30
0
10
-11.868921302731794
20
-55.132014140796556
30
0
10
-12.282453013499593
20
-54.637172117493279
30
0
10
-12.76230280560794
20
-54.231055919489151
30
0
10
-13.304201646216274
20
-53.90795408085264
30
0
10
-13.783662359867186
20
-53.710937144881292
30
0
10
-14.167512525028165
20
-53.595624296901534
30
0
10
-14.434018784016292
20
-53.532938849865928
30
0
10
-14.569923404420928
20
-53.50514351062899
30
0
0
LINE
5
103
100
AcDbEntity
8
0
100
AcDbLine
10
-14.569923404420928
20
-53.50514351062899
30
0
11
-82.000001221895218
21
-53.50514351062899
31
0
0
LINE
5
104
100
AcDbEntity
8
0
100
AcDbLine
10
-82.000001221895218
20
-53.50514351062899
30
0
11
-82.544075553807545
21
-295.39344728218856
31
0
0
LINE
5
105
100
AcDbEntity
8
0
100
AcDbLine
10
-82.544075553807545
20
-295.39344728218856
30
0
11
-16.425734046128177
21
-295.54216589289462
31
0
0
SPLINE
5
106
100
AcDbEntity
8
0
100
AcDbSpline
70
4
71
5
72
21
73
15
74
0
42
0.000000001
43
0.0000000001
44
0.0000000001
40
0
40
0
40
0
40
0
40
0
40
0
40
0.10000000000000001
40
0.20000000000000001
40
0.30000000000000004
40
0.40000000000000002
40
0.5
40
0.59999999999999998
40
0.69999999999999996
40
0.79999999999999993
40
0.89999999999999991
40
1
40
1
40
1
40
1
40
1
40
1
41
1
41
1
41
1
41
1
41
1
41
1
41
1
41
1
41
1
41
1
41
1
41
1
41
1
41
1
41
1
10
-16.425734046128177
20
-295.54216589289462
30
0
10
-16.241030184713033
20
-295.54971191792072
30
0
10
-15.878660820330033
20
-295.55492054622141
30
0
10
-15.356221832719083
20
-295.53308324641739
30
0
10
-14.702561530528563
20
-295.44369057253328
30
0
10
-13.961779487341225
20
-295.22481690817165
30
0
10
-13.30369901933185
20
-294.88981182563981
30
0
10
-12.734434887979326
20
-294.43008883882067
30
0
10
-12.256140938376486
20
-293.84262346978255
30
0
10
-11.863956070247344
20
-293.13424178520512
30
0
10
-11.55083690320161
20
-292.31483425876104
30
0
10
-11.358137956490344
20
-291.57814924668168
30
0
10
-11.244017001540582
20
-290.98294255065616
30
0
10
-11.181227168407705
20
-290.56747484040034
30
0
10
-11.153155131678032
20
-290.35507492241072
30
0
0
LINE
5
107
100
AcDbEntity
8
0
100
AcDbLine
10
-82.802362961876156
20
-171.52837031288561
30
0
11
-82.543903343826059
21
-53.487368228388235
31
0
0
LINE
5
108
100
AcDbEntity
8
0
100
AcDbLine
10
-82.543903343826059
20
-53.487368228388235
30
0
11
-93.159835171809874
21
-53.464123850273396
31
0
0
SPLINE
5
109
100
AcDbEntity
8
0
100
AcDbSpline
70
4
71
5
72
21
73
15
74
0
42
0.000000001
43
0.0000000001
44
0.0000000001
40
0
40
0
40
0
40
0
40
0
40
0
40
0.10000000000000001
40
0.20000000000000001
40
0.30000000000000004
40
0.40000000000000002
40
0.5
40
0.59999999999999998
40
0.69999999999999996
40
0.79999999999999993
40
0.89999999999999991
40
1
40
1
40
1
40
1
40
1
40
1
41
1
41
1
41
1
41
1
41
1
41
1
41
1
41
1
41
1
41
1
41
1
41
1
41
1
41
1
41
1
10
-93.159835171809874
20
-53.464123850273396
30
0
10
-93.279070165308454
20
-53.47840176412457
30
0
10
-93.513903598164887
20
-53.510080605333037
30
0
10
-93.855244696276245
20
-53.566967382733708
30
0
10
-94.288183822901971
20
-53.661866249682639
30
0
10
-94.789817894894085
20
-53.814446001198263
30
0
10
-95.248155220794644
20
-54.004208293516136
30
0
10
-95.659297560702953
20
-54.234500871598073
30
0
10
-96.020495214523564
20
-54.507685133113711
30
0
10
-96.332823169922278
20
-54.822837896138246
30
0
10
-96.599603088126017
20
-55.177106572062357
30
0
10
-96.779390282716577
20
-55.489408197527695
30
0
10
-96.896485253354783
20
-55.73887389899965
30
0
10
-96.966789261666833
20
-55.911847931850147
30
0
10
-97.000001445412636
20
-56.000000834465027
30
0
0
LINE
5
110
100
AcDbEntity
8
0
100
AcDbLine
10
-97.000001445412636
20
-56.000000834465027
30
0
11
-102.59582612295226
21
-93.280981220286563
31
0
0
LINE
5
111
100
AcDbEntity
8
0
100
AcDbLine
10
-102.59582612295226
20
-93.280981220286563
30
0
11
-102.59582612295226
21
-154.73598543353029
31
0
0
LINE
5
112
100
AcDbEntity
8
0
100
AcDbLine
10
-102.59582612295226
20
-154.73598543353029
30
0
11
-83.764750417257943
21
-170.71189972245278
31
0
0
LINE
5
113
100
AcDbEntity
8
0
100
AcDbLine
10
-83.78707948781593
20
-180.63911129129167
30
0
11
-102.59491205056555
21
-196.08515735731794
31
0
0
LINE
5
114
100
AcDbEntity
8
0
100
AcDbLine
10
-102.59491205056555
20
-196.08515735731794
30
0
11
-103.04884739472988
21
-255.73378026499543
31
0
0
LINE
5
115
100
AcDbEntity
8
0
100
AcDbLine
10
-103.04884739472988
20
-255.73378026499543
30
0
11
-97.380061732514946
21
-292.35088602961872
31
0
0
LINE
5
116
100
AcDbEntity
8
0
100
AcDbLine
10
-83.131468377212755
20
-295.39212607172499
30
0
11
-93.926690335344588
21
-295.36784460344751
31
0
0
SPLINE
5
117
100
AcDbEntity
8
0
100
AcDbSpline
70
4
71
5
72
21
73
15
74
0
42
0.000000001
43
0.0000000001
44
0.0000000001
40
0
40
0
40
0
40
0
40
0
40
0
40
0.10000000000000001
40
0.20000000000000001
40
0.30000000000000004
40
0.40000000000000002
40
0.5
40
0.59999999999999998
40
0.69999999999999996
40
0.79999999999999993
40
0.89999999999999991
40
1
40
1
40
1
40
1
40
1
40
1
41
1
41
1
41
1
41
1
41
1
41
1
41
1
41
1
41
1
41
1
41
1
41
1
41
1
41
1
41
1
10
-97.380061732514946
20
-292.35088602961872
30
0
10
-97.355736049772418
20
-292.44261577902665
30
0
10
-97.303114901423527
20
-292.62329009863976
30
0
10
-97.212273859618449
20
-292.88594606101481
30
0
10
-97.066941722385423
20
-293.21916787468308
30
0
10
-96.842241949834118
20
-293.60550228742022
30
0
10
-96.570879795255451
20
-293.95909861332495
30
0
10
-96.249384779755843
20
-294.27752198227478
30
0
10
-95.876492309523059
20
-294.55988516175609
30
0
10
-95.454912153536512
20
-294.80808931171691
30
0
10
-94.988609770002228
20
-295.02491657719798
30
0
10
-94.582868256233496
20
-295.17543651378321
30
0
10
-94.261359495500187
20
-295.27625719284106
30
0
10
-94.039500150219226
20
-295.33819486531718
30
0
10
-93.926690335344588
20
-295.36784460344751
30
0
0
LINE
5
118
100
AcDbEntity
8
0
100
AcDbLine
10
-83.131468377212755
20
-295.39212607172499
30
0
11
-82.769441142779883
21
-179.80336965527172
31
0
0
LINE
5
119
100
AcDbEntity
8
0
100
AcDbLine
10
-82.769441142779883
20
-179.80336965527172
30
0
11
-82.802362961876156
21
-171.52837031288561
31
0
0
LINE
5
120
100
AcDbEntity
8
0
100
AcDbLine
10
-83.78707948781593
20
-180.63911129129167
30
0
11
-83.764750417257943
21
-170.71189972245278
31
0
0
ENDSEC
0
SECTION
2
OBJECTS
0
DICTIONARY
5
C
100
AcDbDictionary
3
ACAD_GROUP
350
D
3
ACAD_MLINESTYLE
350
17
0
DICTIONARY
5
D
100
AcDbDictionary
0
DICTIONARY
5
1A
330
C
100
AcDbDictionary
0
DICTIONARY
5
17
100
AcDbDictionary
0
ENDSEC
0
EOF
