0
SECTION
2
HEADER
9
$INSUNITS
70
4
9
$ACADVER
1
AC1014
9
$HANDSEED
5
FFFF
0
ENDSEC
0
SECTION
2
TABLES
0
TABLE
2
VPORT
5
8
100
AcDbSymbolTable
0
ENDTAB
0
TABLE
2
LTYPE
5
5
100
AcDbSymbolTable
0
LTYPE
5
14
100
AcDbSymbolTableRecord
100
AcDbLinetypeTableRecord
2
BYBLOCK
70
0
0
LTYPE
5
15
100
AcDbSymbolTableRecord
100
AcDbLinetypeTableRecord
2
BYLAYER
70
0
0
LTYPE
5
16
100
AcDbSymbolTableRecord
100
AcDbLinetypeTableRecord
2
DASHED
70
0
3
Dashed __ __ __ __ __ __ __ __ __ __ __ __ __ _
72
65
73
2
40
0.75
49
0.5
74
0
49
-0.25
74
0
0
ENDTAB
0
TABLE
2
LAYER
5
2
100
AcDbSymbolTable
70
2
0
LAYER
5
50
100
AcDbSymbolTableRecord
100
AcDbLayerTableRecord
2
0
70
0
62
7
6
CONTINUOUS
0
ENDTAB
0
TABLE
2
STYLE
5
3
100
AcDbSymbolTable
70
1
0
STYLE
5
11
100
AcDbSymbolTableRecord
100
AcDbTextStyleTableRecord
2
STANDARD
70
0
0
ENDTAB
0
TABLE
2
VIEW
5
6
100
AcDbSymbolTable
70
0
0
ENDTAB
0
TABLE
2
UCS
5
7
100
AcDbSymbolTable
70
0
0
ENDTAB
0
TABLE
2
APPID
5
9
100
AcDbSymbolTable
70
2
0
APPID
5
12
100
AcDbSymbolTableRecord
100
AcDbRegAppTableRecord
2
ACAD
70
0
0
ENDTAB
0
TABLE
2
DIMSTYLE
5
A
100
AcDbSymbolTable
70
1
0
ENDTAB
0
TABLE
2
BLOCK_RECORD
5
1
100
AcDbSymbolTable
70
1
0
BLOCK_RECORD
5
1F
100
AcDbSymbolTableRecord
100
AcDbBlockTableRecord
2
*MODEL_SPACE
0
BLOCK_RECORD
5
1B
100
AcDbSymbolTableRecord
100
AcDbBlockTableRecord
2
*PAPER_SPACE
0
ENDTAB
0
ENDSEC
0
SECTION
2
BLOCKS
0
BLOCK
5
20
100
AcDbEntity
100
AcDbBlockBegin
2
*MODEL_SPACE
0
ENDBLK
5
21
100
AcDbEntity
100
AcDbBlockEnd
0
BLOCK
5
1C
100
AcDbEntity
100
AcDbBlockBegin
2
*PAPER_SPACE
0
ENDBLK
5
1D
100
AcDbEntity
100
AcDbBlockEnd
0
ENDSEC
0
SECTION
2
ENTITIES
0
SPLINE
5
100
100
AcDbEntity
8
0
100
AcDbSpline
70
4
71
5
72
21
73
15
74
0
42
0.000000001
43
0.0000000001
44
0.0000000001
40
0
40
0
40
0
40
0
40
0
40
0
40
0.10000000000000001
40
0.20000000000000001
40
0.30000000000000004
40
0.40000000000000002
40
0.5
40
0.59999999999999998
40
0.69999999999999996
40
0.79999999999999993
40
0.89999999999999991
40
1
40
1
40
1
40
1
40
1
40
1
41
1
41
1
41
1
41
1
41
1
41
1
41
1
41
1
41
1
41
1
41
1
41
1
41
1
41
1
41
1
10
-441.05926776814624
20
-101.50648971217564
30
0
10
-440.93914250538825
20
-101.50103046536034
30
0
10
-440.70149026485433
20
-101.48535535501274
30
0
10
-440.35280659607935
20
-101.44757313759482
30
0
10
-439.90374230382474
20
-101.36818564552615
30
0
10
-439.37060376737043
20
-101.21734118935449
30
0
10
-438.8681262171242
20
-101.01036641612971
30
0
10
-438.39873353609119
20
-100.74282398251846
30
0
10
-437.9636045259096
20
-100.41255588516341
30
0
10
-437.56121499470686
20
-100.02235242476559
30
0
10
-437.18902402544211
20
-99.576865195903224
30
0
10
-436.91341269597933
20
-99.179941609394064
30
0
10
-436.71836193207758
20
-98.860907392523586
30
0
10
-436.59342458481495
20
-98.638887885261795
30
0
10
-436.53223008546195
20
-98.525545531948381
30
0
0
LINE
5
101
100
AcDbEntity
8
0
100
AcDbLine
10
-436.53223008546195
20
-98.525545531948381
30
0
11
-402.43784721774716
21
-3.2806061926169461
31
0
0
LINE
5
102
100
AcDbEntity
8
0
100
AcDbLine
10
-402.43784721774716
20
-3.2806061926169461
30
0
11
-452.86855182961943
21
-3.2806061926169461
31
0
0
LINE
5
103
100
AcDbEntity
8
0
100
AcDbLine
10
-452.86855182961943
20
-3.2806061926169461
30
0
11
-461.51509714787619
21
-101.50648971217564
31
0
0
LINE
5
104
100
AcDbEntity
8
0
100
AcDbLine
10
-461.94950539495272
20
-101.50648971217564
30
0
11
-450.92374225565732
21
23.747618833110913
31
0
0
LINE
5
105
100
AcDbEntity
8
0
100
AcDbLine
10
-450.92374225565732
20
23.747618833110913
30
0
11
-496.08274529937557
21
18.751868649065749
31
0
0
SPLINE
5
106
100
AcDbEntity
8
0
100
AcDbSpline
70
4
71
5
72
21
73
15
74
0
42
0.000000001
43
0.0000000001
44
0.0000000001
40
0
40
0
40
0
40
0
40
0
40
0
40
0.10000000000000001
40
0.20000000000000001
40
0.30000000000000004
40
0.40000000000000002
40
0.5
40
0.59999999999999998
40
0.69999999999999996
40
0.79999999999999993
40
0.89999999999999991
40
1
40
1
40
1
40
1
40
1
40
1
41
1
41
1
41
1
41
1
41
1
41
1
41
1
41
1
41
1
41
1
41
1
41
1
41
1
41
1
41
1
10
-496.08274529937557
20
18.751868649065749
30
0
10
-496.24373843151943
20
18.723619323616937
30
0
10
-496.56000658335961
20
18.662629998673491
30
0
10
-497.01725539662954
20
18.557674713874277
30
0
10
-497.59204125860037
20
18.390342214780063
30
0
10
-498.2483627757349
20
18.132359093882965
30
0
10
-498.8366563114497
20
17.820950739925685
30
0
10
-499.3508634787699
20
17.451359247004024
30
0
10
-499.78680549392607
20
17.020302840615141
30
0
10
-500.14633984949347
20
16.529240287777441
30
0
10
-500.43472877735843
20
15.982304240397982
30
0
10
-500.61293471869396
20
15.503520861474909
30
0
10
-500.71889455494414
20
15.122683578446114
30
0
10
-500.77742499237183
20
14.859281993734502
30
0
10
-500.80366284507454
20
14.725203683616614
30
0
0
LINE
5
107
100
AcDbEntity
8
0
100
AcDbLine
10
-500.80366284507454
20
14.725203683616614
30
0
11
-498.3091989778477
21
-97.347317056222039
31
0
0
SPLINE
5
108
100
AcDbEntity
8
0
100
AcDbSpline
70
4
71
5
72
21
73
15
74
0
42
0.000000001
43
0.0000000001
44
0.0000000001
40
0
40
0
40
0
40
0
40
0
40
0
40
0.10000000000000001
40
0.20000000000000001
40
0.30000000000000004
40
0.40000000000000002
40
0.5
40
0.59999999999999998
40
0.69999999999999996
40
0.79999999999999993
40
0.89999999999999991
40
1
40
1
40
1
40
1
40
1
40
1
41
1
41
1
41
1
41
1
41
1
41
1
41
1
41
1
41
1
41
1
41
1
41
1
41
1
41
1
41
1
10
-498.3091989778477
20
-97.347317056222039
30
0
10
-498.27818964083588
20
-97.510253130812657
30
0
10
-498.20976382544535
20
-97.829116760205267
30
0
10
-498.08790405967727
20
-98.286387062146133
30
0
10
-497.8863465476133
20
-98.853335103898388
30
0
10
-497.5648846653425
20
-99.485980441929854
30
0
10
-497.16783255955414
20
-100.03594060937959
30
0
10
-496.68923490562258
20
-100.49670131104419
30
0
10
-496.12623476191965
20
-100.86513745094663
30
0
10
-495.48262920130873
20
-101.14540249769028
30
0
10
-494.76469221961042
20
-101.34435932841966
30
0
10
-494.13585221288974
20
-101.44391986572842
30
0
10
-493.6355337250763
20
-101.48720906655278
30
0
10
-493.28944616259656
20
-101.50234943868907
30
0
10
-493.11326677847171
20
-101.50648971217564
30
0
0
LINE
5
109
100
AcDbEntity
8
0
100
AcDbLine
10
-441.05926776814624
20
-101.50648971217564
30
0
11
-461.51509714787619
21
-101.50648971217564
31
0
0
LINE
5
110
100
AcDbEntity
8
0
100
AcDbLine
10
-461.94950539495272
20
-101.50648971217564
30
0
11
-493.11326677847171
21
-101.50648971217564
31
0
0
ENDSEC
0
SECTION
2
OBJECTS
0
DICTIONARY
5
C
100
AcDbDictionary
3
ACAD_GROUP
350
D
3
ACAD_MLINESTYLE
350
17
0
DICTIONARY
5
D
100
AcDbDictionary
0
DICTIONARY
5
1A
330
C
100
AcDbDictionary
0
DICTIONARY
5
17
100
AcDbDictionary
0
ENDSEC
0
EOF
